<svg xmlns="http://www.w3.org/2000/svg" width="30" height="29" viewBox="0 0 30 29">
    <defs>
        <linearGradient id="a" x1="50%" x2="50%" y1="99.709%" y2=".777%">
            <stop offset="0%" stop-color="#E09B3D"/>
            <stop offset="30%" stop-color="#C74C4D"/>
            <stop offset="60%" stop-color="#C21975"/>
            <stop offset="100%" stop-color="#7024C4"/>
        </linearGradient>
    </defs>
    <g fill="none" fill-rule="evenodd" transform="translate(0 .15)">
        <ellipse cx="15" cy="14.223" fill="#FFF" rx="15" ry="14.223"/>
        <path fill="url(#a)" fill-rule="nonzero" d="M12.537 0H5.32C2.386 0 0 2.263 0 5.044v6.844c0 2.781 2.386 5.044 5.32 5.044h7.217c2.934 0 5.32-2.263 5.32-5.044V5.044c0-2.781-2.386-5.044-5.32-5.044zm3.524 11.888c0 1.845-1.578 3.34-3.524 3.34H5.32c-1.946 0-3.524-1.495-3.524-3.34V5.044c0-1.845 1.578-3.34 3.524-3.34h7.217c1.946 0 3.524 1.495 3.524 3.34v6.844zM8.887 4.054c-2.543 0-4.611 1.961-4.611 4.372 0 2.41 2.068 4.372 4.61 4.372 2.543 0 4.612-1.961 4.612-4.372 0-2.41-2.069-4.372-4.611-4.372zm0 7.044c-1.556 0-2.818-1.196-2.818-2.672 0-1.475 1.262-2.671 2.818-2.671s2.817 1.196 2.817 2.671c0 1.476-1.261 2.672-2.817 2.672zm4.61-5.931c.603 0 1.09-.463 1.09-1.033 0-.571-.487-1.034-1.09-1.034-.601 0-1.09.463-1.09 1.034 0 .57.489 1.033 1.09 1.033z" transform="translate(5.714 5.418)"/>
    </g>
</svg>
