<svg xmlns="http://www.w3.org/2000/svg" width="30" height="29" viewBox="0 0 30 29">
    <g fill="none" fill-rule="evenodd" transform="translate(0 .15)">
        <ellipse cx="15" cy="14.223" fill="#FFF" rx="15" ry="14.223"/>
        <path fill="#39579A" fill-rule="nonzero" d="M18.302 8.13l-1.713-.003c-1.925 0-3.168 1.243-3.168 3.167v1.46h-1.723a.266.266 0 0 0-.27.263v2.115c0 .145.121.263.27.263h1.723v5.338c0 .145.12.263.269.263h2.247c.15 0 .27-.118.27-.263v-5.338h2.014c.149 0 .27-.118.27-.263v-2.115a.26.26 0 0 0-.079-.186.273.273 0 0 0-.19-.077h-2.015v-1.237c0-.595.145-.897.941-.897h1.154c.149 0 .27-.118.27-.263V8.392a.266.266 0 0 0-.27-.262z"/>
    </g>
</svg>
