<svg xmlns="http://www.w3.org/2000/svg" xmlns:xlink="http://www.w3.org/1999/xlink" width="102" height="57" viewBox="0 0 102 57">
    <defs>
        <path id="a" d="M0 .175h45.765v37.861H0z"/>
    </defs>
    <g fill="none" fill-rule="evenodd">
        <path fill="#FFF" d="M42.066 21.028h-.044l-1.6 2.293-1.711 2.207H37v-.194l4.08-5.345-3.488-4.717v-.174h1.776l1.382 1.883 1.338 2.034h.044l1.447-2.12 1.382-1.797h1.71v.195l-3.618 4.783L47 25.334v.194h-1.667l-1.6-2.142zM50.876 19.852v3.443c.888.669 1.954 1.002 3.194 1.002 1.072 0 1.976-.36 2.712-1.078.735-.72 1.103-1.696 1.103-2.931 0-1.119-.291-2.038-.873-2.757-.583-.72-1.463-1.079-2.643-1.079-1.026 0-1.858.331-2.493.992-.636.661-.97 1.464-1 2.408m-.206-3.008c.827-1.292 2.175-1.94 4.044-1.94 1.562 0 2.788.506 3.676 1.516.889 1.01 1.333 2.299 1.333 3.868 0 1.627-.52 2.952-1.563 3.977-1.041 1.024-2.297 1.536-3.768 1.536-1.364 0-2.52-.305-3.47-.915v6.123H49.13v-12.4c0-.958-.038-1.539-.115-1.743-.169-.42-.567-.595-1.195-.523l-.023-1.264c.934-.145 1.655-.083 2.16.186.506.269.743.795.713 1.58M63.606 16.583c.612-1.119 1.731-1.678 3.355-1.678.965 0 1.83.261 2.596.784l-.436 1.439c-.766-.465-1.548-.698-2.344-.698-.827 0-1.543.255-2.149.763-.605.509-.907 1.163-.907 1.962v6.45h-1.77V17.65c0-.29-.007-.509-.022-.654a1.19 1.19 0 0 0-.15-.447.628.628 0 0 0-.402-.305c-.184-.05-.436-.061-.758-.033l-.023-1.133c.95-.16 1.68-.137 2.194.066.513.203.785.683.816 1.438M75.233 16.256c-1.026 0-1.88.262-2.562.785-.682.523-1.1 1.25-1.252 2.18h7.215c.061-.96-.23-1.693-.873-2.202-.643-.508-1.486-.763-2.528-.763m0-1.351c1.869.015 3.225.52 4.068 1.515.842.995 1.11 2.364.804 4.107H71.35c-.061 1.177.333 2.114 1.183 2.811.85.698 1.927 1.047 3.229 1.047 1.195 0 2.443-.255 3.745-.763l.276 1.285c-1.333.596-2.688.894-4.067.894-1.87 0-3.378-.515-4.527-1.547s-1.693-2.426-1.631-4.184c.06-1.598.628-2.858 1.7-3.781s2.397-1.384 3.975-1.384M81.253 22.641H83c.046.61.375 1.061.988 1.351.612.291 1.34.436 2.183.436.842 0 1.566-.152 2.171-.457.605-.306.923-.763.954-1.373 0-.552-.23-.941-.69-1.166-.46-.225-1.263-.418-2.412-.578-.521-.058-.965-.12-1.333-.185a10.105 10.105 0 0 1-1.218-.305c-.444-.138-.804-.302-1.08-.49a2.396 2.396 0 0 1-.7-.763 2.278 2.278 0 0 1-.31-1.111c-.032-1.017.409-1.788 1.32-2.31.912-.524 2.003-.785 3.275-.785 1.256 0 2.344.261 3.263.784s1.363 1.265 1.332 2.224H89.02c0-.538-.28-.949-.839-1.232-.559-.283-1.237-.425-2.033-.425-.797 0-1.486.142-2.068.425-.583.283-.858.708-.828 1.275.016.48.253.82.713 1.024.46.204 1.256.385 2.39.545.52.058.915.109 1.183.152.268.044.62.113 1.057.207.437.095.773.211 1.011.35.237.137.486.312.747.522.26.21.444.469.551.774.107.305.153.66.138 1.068 0 1.017-.463 1.797-1.39 2.342-.927.545-2.087.832-3.481.86-1.364 0-2.501-.246-3.412-.74-.912-.494-1.414-1.3-1.506-2.419M92.03 22.641h1.746c.046.61.375 1.061.988 1.351.613.291 1.34.436 2.183.436.843 0 1.567-.152 2.172-.457.605-.306.923-.763.953-1.373 0-.552-.23-.941-.689-1.166-.46-.225-1.264-.418-2.413-.578-.52-.058-.965-.12-1.332-.185a10.105 10.105 0 0 1-1.218-.305c-.445-.138-.804-.302-1.08-.49a2.396 2.396 0 0 1-.701-.763 2.278 2.278 0 0 1-.31-1.111c-.031-1.017.41-1.788 1.321-2.31.911-.524 2.003-.785 3.274-.785 1.256 0 2.344.261 3.263.784.92.523 1.364 1.265 1.333 2.224h-1.723c0-.538-.28-.949-.839-1.232-.56-.283-1.237-.425-2.034-.425-.796 0-1.486.142-2.068.425-.582.283-.858.708-.827 1.275.015.48.253.82.712 1.024.46.204 1.256.385 2.39.545.52.058.915.109 1.184.152.267.044.62.113 1.057.207.436.095.773.211 1.01.35.238.137.487.312.747.522.26.21.445.469.552.774.107.305.153.66.138 1.068 0 1.017-.464 1.797-1.39 2.342-.927.545-2.088.832-3.482.86-1.363 0-2.5-.246-3.412-.74-.912-.494-1.413-1.3-1.505-2.419M56.809 29.508v3.127h1.74v.375h-2.184v-3.502zM61.299 31.259c0 .42.135.76.406 1.021.27.26.61.39 1.018.39.412 0 .754-.13 1.026-.39.273-.26.41-.6.41-1.021 0-.42-.135-.761-.404-1.023-.27-.262-.611-.393-1.027-.393-.408 0-.748.13-1.02.39-.273.26-.41.602-.41 1.026m3.304 0c0 .53-.174.963-.523 1.296-.348.334-.8.5-1.356.5-.534 0-.98-.163-1.335-.49-.355-.327-.532-.762-.532-1.306 0-.547.178-.983.535-1.308.357-.326.803-.488 1.337-.488.531 0 .977.164 1.335.492.36.329.539.764.539 1.304M67.24 31.254c0-.534.176-.966.527-1.296.352-.33.79-.495 1.314-.495.387 0 .732.087 1.037.263.304.175.505.436.604.782h-.433c-.172-.443-.575-.665-1.208-.665-.422 0-.76.133-1.016.4-.255.267-.382.604-.382 1.011 0 .414.126.753.38 1.016.253.263.592.395 1.018.395.39 0 .708-.097.952-.293.245-.195.385-.477.42-.848h-1.314v-.355h1.72c.014.347-.041.66-.166.94-.125.281-.327.508-.607.684-.28.175-.614.263-1.005.263-.531 0-.97-.167-1.319-.498-.348-.332-.522-.767-.522-1.304M74.431 32.675h.639v.335h-1.72v-.335h.638v-2.837h-.596v-.33h1.635v.33h-.596zM77.623 32.055h.428c.007.147.068.27.184.37.116.1.248.17.396.208.148.038.304.057.47.057.165 0 .317-.017.456-.052a.85.85 0 0 0 .375-.208.534.534 0 0 0 .171-.395.84.84 0 0 0-.016-.168.322.322 0 0 0-.06-.135 1.443 1.443 0 0 0-.085-.1.333.333 0 0 0-.121-.075 3.307 3.307 0 0 1-.127-.053.783.783 0 0 0-.156-.04l-.158-.027a5.443 5.443 0 0 0-.174-.023l-.164-.02a4.44 4.44 0 0 1-.498-.077 1.89 1.89 0 0 1-.42-.148.745.745 0 0 1-.316-.278.791.791 0 0 1-.11-.427c0-.22.067-.409.202-.563.136-.156.302-.267.499-.336a2.19 2.19 0 0 1 1.277-.013c.197.06.368.165.514.313.146.149.223.33.23.543h-.412a.5.5 0 0 0-.177-.342.846.846 0 0 0-.35-.18 1.823 1.823 0 0 0-.433-.048c-.24 0-.451.05-.636.153a.5.5 0 0 0-.277.467c0 .05.006.097.018.14.013.044.026.082.04.116a.243.243 0 0 0 .074.092l.082.07c.02.019.056.037.11.055l.117.04a.835.835 0 0 0 .134.028l.13.02a5.122 5.122 0 0 0 .276.035c.176.02.321.04.436.06.114.02.24.053.377.098.137.044.245.1.324.164.08.066.146.154.2.266a.887.887 0 0 1 .083.393c0 .18-.042.337-.127.472a.878.878 0 0 1-.34.316 1.94 1.94 0 0 1-.454.17c-.16.038-.33.06-.51.063a2.17 2.17 0 0 1-.685-.088 1.28 1.28 0 0 1-.554-.335.835.835 0 0 1-.243-.578M84.092 29.883h-1.14v-.375h2.707v.375h-1.14v3.127h-.427zM89.141 32.675h.639v.335h-1.72v-.335h.638v-2.837h-.596v-.33h1.635v.33h-.596zM92.819 32.558c-.359-.329-.538-.762-.538-1.299 0-.537.178-.972.535-1.306.357-.333.801-.497 1.332-.49a1.9 1.9 0 0 1 1.024.285c.306.19.512.46.617.81h-.427a1.185 1.185 0 0 0-.485-.53 1.447 1.447 0 0 0-.729-.18c-.418-.007-.76.123-1.023.39-.264.267-.396.608-.396 1.021 0 .4.131.735.393 1.003.262.269.603.403 1.021.403.288 0 .544-.067.765-.202.222-.135.38-.327.475-.574h.428a1.431 1.431 0 0 1-.615.864 1.889 1.889 0 0 1-1.048.297c-.527 0-.97-.164-1.33-.492M98.396 32.055h.427c.007.147.069.27.185.37.116.1.248.17.396.208.147.038.304.057.469.057.165 0 .317-.017.456-.052a.85.85 0 0 0 .375-.208.534.534 0 0 0 .172-.395.84.84 0 0 0-.016-.168.322.322 0 0 0-.061-.135 1.443 1.443 0 0 0-.084-.1.333.333 0 0 0-.122-.075 3.306 3.306 0 0 1-.126-.053.783.783 0 0 0-.156-.04l-.158-.027a5.443 5.443 0 0 0-.174-.023l-.164-.02a4.44 4.44 0 0 1-.499-.077 1.89 1.89 0 0 1-.419-.148.745.745 0 0 1-.317-.278.791.791 0 0 1-.11-.427c0-.22.067-.409.203-.563.135-.156.301-.267.498-.336a2.19 2.19 0 0 1 1.277-.013c.197.06.369.165.515.313.145.149.222.33.23.543h-.412a.5.5 0 0 0-.177-.342.846.846 0 0 0-.351-.18 1.823 1.823 0 0 0-.433-.048c-.239 0-.45.05-.635.153a.5.5 0 0 0-.278.467c0 .05.007.097.019.14.012.044.025.082.04.116a.243.243 0 0 0 .073.092c.036.029.063.052.082.07.02.019.057.037.111.055l.116.04a.835.835 0 0 0 .135.028c.066.01.11.016.129.02a5.122 5.122 0 0 0 .277.035c.176.02.32.04.435.06.114.02.24.053.377.098.138.044.246.1.325.164.079.066.146.154.2.266a.887.887 0 0 1 .082.393c0 .18-.042.337-.126.472a.878.878 0 0 1-.34.316 1.94 1.94 0 0 1-.455.17c-.16.038-.33.06-.509.063a2.17 2.17 0 0 1-.686-.088 1.28 1.28 0 0 1-.554-.335.835.835 0 0 1-.242-.578"/>
        <g transform="translate(0 -.073)">
            <mask id="b" fill="#fff">
                <use xlink:href="#a"/>
            </mask>
            <path fill="#FFF" d="M12.626 18.535V.175H0v37.861h12.626L45.765.174H27.417z" mask="url(#b)"/>
        </g>
        <path fill="#FFF" d="M60.726 56.819L20.086 9.202l-7.46 9.26L42.448 56.82z"/>
        <path fill="#3D3D3D" d="M25.906 35.648l-13.28-17.204 12.057 17.734z"/>
    </g>
</svg>
