<svg xmlns="http://www.w3.org/2000/svg" xmlns:xlink="http://www.w3.org/1999/xlink" width="85" height="50" viewBox="0 0 85 50">
    <defs>
        <path id="a" d="M0 .153h37.965V33.43H0z"/>
    </defs>
    <g fill="none" fill-rule="evenodd">
        <path fill="#232323" d="M35.056 18.324h-.037l-1.355 2.03-1.447 1.954h-1.448v-.173l3.452-4.73-2.95-4.175v-.153h1.502l1.17 1.666 1.131 1.8h.037l1.225-1.877 1.17-1.59h1.447v.173l-3.062 4.233 3.34 4.653v.173h-1.41l-1.355-1.896zM42.205 17.511v3.026c.737.588 1.62.88 2.65.88.89 0 1.639-.315 2.25-.947.609-.632.914-1.49.914-2.576 0-.983-.241-1.79-.724-2.423-.483-.632-1.214-.948-2.193-.948-.851 0-1.54.29-2.068.871-.527.582-.804 1.287-.829 2.117m-.171-2.643c.686-1.136 1.804-1.705 3.355-1.705 1.296 0 2.312.444 3.05 1.331.736.888 1.105 2.021 1.105 3.4 0 1.43-.432 2.595-1.296 3.495-.865.9-1.906 1.35-3.126 1.35-1.132 0-2.091-.268-2.879-.804v5.382h-1.487V16.42c0-.842-.031-1.353-.095-1.532-.14-.37-.47-.523-.991-.46l-.02-1.11c.776-.128 1.373-.074 1.793.163.419.236.616.699.59 1.388M52.765 14.638c.508-.983 1.436-1.475 2.783-1.475.8 0 1.519.23 2.154.69l-.362 1.264c-.636-.409-1.284-.613-1.944-.613-.686 0-1.28.224-1.783.67-.502.447-.752 1.022-.752 1.724v5.67h-1.468v-6.991c0-.256-.007-.447-.02-.575a1.089 1.089 0 0 0-.123-.393.526.526 0 0 0-.334-.268c-.152-.044-.362-.054-.629-.029l-.019-.996c.788-.14 1.395-.12 1.82.058.426.179.652.6.677 1.264M62.41 14.35c-.85 0-1.56.23-2.125.69-.565.46-.912 1.099-1.039 1.916h5.986c.05-.843-.19-1.488-.724-1.935-.534-.447-1.233-.67-2.097-.67m0-1.188c1.55.013 2.675.457 3.374 1.332.699.874.921 2.078.667 3.61h-7.263c-.05 1.034.277 1.858.982 2.47.705.613 1.598.92 2.678.92.991 0 2.027-.224 3.107-.67l.229 1.13c-1.106.523-2.23.784-3.374.784-1.55 0-2.802-.452-3.755-1.36-.953-.906-1.404-2.132-1.354-3.677.051-1.404.521-2.511 1.41-3.323.89-.81 1.99-1.216 3.299-1.216M67.405 19.963h1.448c.039.536.312.932.82 1.187s1.112.383 1.811.383c.699 0 1.3-.134 1.801-.402.502-.268.766-.67.791-1.207 0-.485-.19-.827-.571-1.024-.382-.198-1.049-.367-2.002-.508-.432-.051-.8-.105-1.106-.163a7.998 7.998 0 0 1-1.01-.268 3.261 3.261 0 0 1-.896-.43 2.093 2.093 0 0 1-.839-1.647c-.025-.895.34-1.572 1.097-2.031.756-.46 1.661-.69 2.716-.69 1.042 0 1.944.23 2.707.69.762.46 1.13 1.11 1.105 1.954h-1.43c0-.473-.231-.834-.695-1.083-.464-.249-1.026-.373-1.687-.373-.66 0-1.233.124-1.716.373-.483.25-.711.623-.686 1.12.013.422.21.722.591.9.381.18 1.042.34 1.983.48.431.05.759.095.981.134.222.038.515.099.877.182.362.083.642.185.839.306.197.122.403.275.62.46.215.185.368.411.457.68.089.268.127.58.114.938 0 .894-.384 1.58-1.153 2.06-.769.478-1.732.73-2.888.755-1.131 0-2.075-.216-2.83-.65-.757-.435-1.173-1.143-1.25-2.126M76.345 19.963h1.448c.039.536.312.932.82 1.187s1.112.383 1.811.383c.699 0 1.3-.134 1.801-.402.502-.268.766-.67.791-1.207 0-.485-.19-.827-.571-1.024-.382-.198-1.049-.367-2.002-.508-.432-.051-.8-.105-1.106-.163a7.998 7.998 0 0 1-1.01-.268 3.261 3.261 0 0 1-.896-.43 2.093 2.093 0 0 1-.839-1.647c-.025-.895.34-1.572 1.097-2.031.755-.46 1.66-.69 2.716-.69 1.042 0 1.944.23 2.707.69.762.46 1.13 1.11 1.105 1.954h-1.43c0-.473-.231-.834-.695-1.083-.464-.249-1.026-.373-1.687-.373s-1.233.124-1.716.373c-.483.25-.711.623-.686 1.12.013.422.21.722.59.9.382.18 1.043.34 1.983.48.432.05.76.095.982.134.222.038.515.099.877.182.362.083.642.185.839.306.197.122.403.275.62.46.215.185.368.411.457.68.088.268.127.58.114.938 0 .894-.384 1.58-1.153 2.06-.77.478-1.732.73-2.888.755-1.131 0-2.075-.216-2.83-.65-.757-.435-1.173-1.143-1.25-2.126"/>
        <path fill="#E41A80" d="M47.126 25.997v2.749h1.445v.33h-1.812v-3.079zM50.851 27.536c0 .37.112.669.337.898.225.228.506.343.845.343.341 0 .625-.115.851-.343.226-.23.34-.528.34-.898 0-.369-.112-.669-.335-.899a1.135 1.135 0 0 0-.852-.345c-.338 0-.62.114-.847.343-.226.229-.339.53-.339.901m2.74 0c0 .467-.144.846-.433 1.14-.29.293-.664.44-1.125.44-.444 0-.813-.144-1.108-.432-.294-.287-.442-.67-.442-1.148 0-.48.148-.864.445-1.15.296-.285.666-.428 1.11-.428.44 0 .809.144 1.107.433.297.288.446.67.446 1.145M55.78 27.532c0-.47.145-.849.437-1.139.292-.29.655-.435 1.09-.435.321 0 .608.077.86.23.252.155.42.384.501.689h-.359c-.143-.39-.477-.585-1.002-.585-.35 0-.63.117-.843.352-.211.234-.317.53-.317.888 0 .363.105.661.315.893.21.231.492.347.845.347.324 0 .587-.086.79-.257.203-.172.319-.42.348-.746h-1.09v-.312h1.427c.012.305-.034.58-.138.827a1.325 1.325 0 0 1-.503.6c-.232.154-.51.231-.834.231-.44 0-.805-.146-1.094-.437-.29-.292-.434-.674-.434-1.146M61.745 28.78h.53v.296h-1.427v-.295h.53v-2.494h-.495v-.29h1.357v.29h-.495zM64.393 28.236h.355a.453.453 0 0 0 .153.325.791.791 0 0 0 .328.183c.123.033.253.05.39.05s.263-.015.378-.046a.695.695 0 0 0 .311-.182.483.483 0 0 0 .143-.348.781.781 0 0 0-.014-.147.291.291 0 0 0-.05-.12 1.253 1.253 0 0 0-.07-.087.274.274 0 0 0-.1-.066 2.66 2.66 0 0 1-.106-.046.621.621 0 0 0-.129-.035l-.131-.025a4.275 4.275 0 0 0-.145-.02l-.135-.017a3.493 3.493 0 0 1-.414-.068 1.51 1.51 0 0 1-.348-.13.631.631 0 0 1-.262-.244.728.728 0 0 1-.092-.376c0-.193.056-.358.168-.495a.952.952 0 0 1 .414-.294 1.721 1.721 0 0 1 1.06-.011.996.996 0 0 1 .426.275c.12.13.184.29.19.477h-.341a.449.449 0 0 0-.147-.302.688.688 0 0 0-.291-.158 1.432 1.432 0 0 0-.359-.041c-.198 0-.374.044-.527.134a.443.443 0 0 0-.23.41c0 .045.005.086.015.124a.93.93 0 0 0 .033.101c.012.03.032.057.061.081.03.026.052.046.068.062a.262.262 0 0 0 .092.048l.096.036a.66.66 0 0 0 .112.024l.107.017a4.026 4.026 0 0 0 .23.031c.146.018.266.035.361.053.095.017.2.046.313.086.114.04.204.088.27.145a.684.684 0 0 1 .166.233.819.819 0 0 1 .067.345.802.802 0 0 1-.105.416.747.747 0 0 1-.282.277 1.554 1.554 0 0 1-.376.149 1.848 1.848 0 0 1-.423.055 1.706 1.706 0 0 1-.569-.077 1.053 1.053 0 0 1-.46-.294.757.757 0 0 1-.2-.508M69.76 26.327h-.946v-.33h2.245v.33h-.945v2.749h-.354zM73.948 28.78h.53v.296H73.05v-.295h.53v-2.494h-.495v-.29h1.357v.29h-.495zM76.999 28.678c-.298-.289-.447-.67-.447-1.142 0-.471.149-.854.445-1.148a1.479 1.479 0 0 1 1.105-.43c.312 0 .595.083.849.25.254.167.425.405.512.713h-.354a1.022 1.022 0 0 0-.403-.466 1.147 1.147 0 0 0-.604-.159c-.347-.006-.63.109-.85.343-.218.235-.327.534-.327.897 0 .352.108.646.326.882.217.236.5.354.847.354.239 0 .45-.06.634-.178a.978.978 0 0 0 .394-.504h.355a1.258 1.258 0 0 1-.51.76 1.503 1.503 0 0 1-.869.26c-.438 0-.805-.144-1.103-.432M81.625 28.236h.355a.453.453 0 0 0 .153.325.791.791 0 0 0 .328.183c.123.033.253.05.39.05s.263-.015.379-.046a.695.695 0 0 0 .31-.182.483.483 0 0 0 .143-.348.781.781 0 0 0-.014-.147.291.291 0 0 0-.05-.12 1.253 1.253 0 0 0-.07-.087.274.274 0 0 0-.1-.066 2.66 2.66 0 0 1-.106-.046.621.621 0 0 0-.129-.035l-.131-.025a4.275 4.275 0 0 0-.145-.02l-.135-.017a3.493 3.493 0 0 1-.414-.068 1.51 1.51 0 0 1-.348-.13.631.631 0 0 1-.262-.244.728.728 0 0 1-.092-.376c0-.193.056-.358.168-.495a.952.952 0 0 1 .414-.294 1.721 1.721 0 0 1 1.06-.011.996.996 0 0 1 .426.275c.12.13.184.29.19.477h-.341a.449.449 0 0 0-.147-.302.688.688 0 0 0-.291-.158 1.432 1.432 0 0 0-.359-.041c-.198 0-.374.044-.527.134a.443.443 0 0 0-.23.41c0 .045.005.086.015.124a.93.93 0 0 0 .033.101c.012.03.032.057.061.081.03.026.052.046.068.062a.262.262 0 0 0 .092.048l.096.036a.66.66 0 0 0 .112.024l.107.017a4.026 4.026 0 0 0 .23.031c.146.018.266.035.361.053.095.017.2.046.313.086.114.04.204.088.27.145a.684.684 0 0 1 .166.233.819.819 0 0 1 .068.345.802.802 0 0 1-.106.416.747.747 0 0 1-.282.277 1.554 1.554 0 0 1-.376.149 1.848 1.848 0 0 1-.423.055 1.706 1.706 0 0 1-.569-.077 1.053 1.053 0 0 1-.46-.294.757.757 0 0 1-.2-.508"/>
        <g>
            <mask id="b" fill="#fff">
                <use xlink:href="#a"/>
            </mask>
            <path fill="#E41A80" d="M10.474 16.29V.153H0V33.43h10.474L37.964.153h-15.22z" mask="url(#b)"/>
        </g>
        <path fill="#E41A80" d="M50.376 50L16.663 8.15l-6.189 8.139L35.214 50z"/>
        <path fill="#FFF" d="M21.49 31.394l-11.016-15.12L20.476 31.86z"/>
    </g>
</svg>
