<svg xmlns="http://www.w3.org/2000/svg" width="30" height="29" viewBox="0 0 30 29">
    <g fill="none" fill-rule="evenodd" transform="translate(0 .15)">
        <ellipse cx="15" cy="14.223" fill="#FFF" rx="15" ry="14.223"/>
        <path fill="#5BC2FF" fill-rule="nonzero" d="M12.079 20.318c5.93 0 9.174-4.691 9.174-8.752 0-.132 0-.264-.006-.396a6.408 6.408 0 0 0 1.61-1.596 6.783 6.783 0 0 1-1.855.486 3.125 3.125 0 0 0 1.421-1.704 6.607 6.607 0 0 1-2.05.743c-.905-.92-2.308-1.22-3.539-.756-1.23.465-2.038 1.6-2.038 2.862.001.236.028.471.081.702-2.679-.126-5.056-1.355-6.646-3.215-.853 1.407-.416 3.204.999 4.11a3.383 3.383 0 0 1-1.459-.385v.042c.001 1.464 1.081 2.725 2.585 3.018-.474.122-.97.14-1.453.054.422 1.253 1.633 2.112 3.012 2.135a6.669 6.669 0 0 1-4.005 1.32 6.5 6.5 0 0 1-.767-.042 9.498 9.498 0 0 0 4.936 1.374"/>
    </g>
</svg>
